<svg width="10" height="10" viewBox="0 0 10 10" fill="none" xmlns="http://www.w3.org/2000/svg">
<g clip-path="url(#clip0_48_1116)">
<rect x="6.00012" y="10" width="2" height="2" transform="rotate(-180 6.00012 10)" fill="#243838"/>
<rect x="6.00012" y="8" width="2" height="2" transform="rotate(-180 6.00012 8)" fill="#243838"/>
<rect x="6.00012" y="8" width="2" height="2" transform="rotate(-180 6.00012 8)" fill="#243838"/>
<rect x="4" y="6" width="2" height="2" transform="rotate(-180 4 6)" fill="#243838"/>
<rect x="2" y="6" width="2" height="2" transform="rotate(-180 2 6)" fill="#243838"/>
<rect x="6.00012" y="4" width="2" height="2" transform="rotate(-180 6.00012 4)" fill="#243838"/>
<rect x="6.00012" y="2" width="2" height="2" transform="rotate(-180 6.00012 2)" fill="#243838"/>
<rect x="10" y="6" width="2" height="2" transform="rotate(-180 10 6)" fill="#243838"/>
</g>
<defs>
<clipPath id="clip0_48_1116">
<rect width="10" height="10" fill="white" transform="translate(10 10) rotate(-180)"/>
</clipPath>
</defs>
</svg>
