<svg width="70" height="24" viewBox="0 0 70 24" fill="none" xmlns="http://www.w3.org/2000/svg">
<g clip-path="url(#clip0_664_17943)">
<path d="M-0.108398 20.9946V8.32055H2.93825V9.88044C3.23073 9.34423 3.66945 8.91364 4.2544 8.58866C4.85561 8.26368 5.53806 8.1012 6.30175 8.1012C7.95913 8.1012 9.21029 8.71053 10.0552 9.92919C10.9977 8.71053 12.3138 8.1012 14.0037 8.1012C15.4011 8.1012 16.571 8.54804 17.5134 9.44172C18.4559 10.3354 18.9271 11.4078 18.9271 12.659V20.9946H15.8804V13.6095C15.8804 12.8296 15.6448 12.204 15.1736 11.7328C14.7186 11.2453 14.1337 11.0016 13.4187 11.0016C12.6713 11.0016 12.0701 11.2453 11.6151 11.7328C11.1601 12.2203 10.9327 12.8458 10.9327 13.6095V20.9946H7.88601V13.6095C7.88601 12.8296 7.6504 12.204 7.17919 11.7328C6.72422 11.2453 6.13927 11.0016 5.42432 11.0016C4.67687 11.0016 4.07567 11.2453 3.6207 11.7328C3.16573 12.2203 2.93825 12.8458 2.93825 13.6095V20.9946H-0.108398Z" fill="#212323"/>
<path d="M42.5823 21.2138C40.8274 21.2138 39.3488 20.6207 38.1464 19.4345C36.944 18.2484 36.3428 16.656 36.3428 14.6574C36.3428 12.74 36.944 11.172 38.1464 9.95336C39.3651 8.71845 40.8437 8.101 42.5823 8.101C43.4272 8.101 44.2234 8.26349 44.9709 8.58846C45.7183 8.91344 46.2789 9.32778 46.6526 9.83149V2.95825H49.6993V20.9944H46.6526V19.5077C46.2789 20.0114 45.7102 20.4257 44.9465 20.7507C44.1991 21.0594 43.411 21.2138 42.5823 21.2138ZM40.4375 12.0251C39.7713 12.7238 39.4382 13.6012 39.4382 14.6574C39.4382 15.7136 39.7713 16.5991 40.4375 17.3141C41.1037 18.0128 41.973 18.3621 43.0454 18.3621C44.1178 18.3621 44.9871 18.0046 45.6533 17.2897C46.3358 16.5747 46.677 15.6973 46.677 14.6574C46.677 13.6175 46.3358 12.74 45.6533 12.0251C44.9871 11.3101 44.1178 10.9527 43.0454 10.9527C41.973 10.9527 41.1037 11.3101 40.4375 12.0251Z" fill="#212323"/>
<path fill-rule="evenodd" clip-rule="evenodd" d="M53.5078 19.3616C54.7102 20.5965 56.3188 21.214 58.3337 21.214C59.8935 21.214 61.1609 20.8565 62.1359 20.1416C62.9678 19.5415 63.5651 18.9128 63.9277 18.2555L61.4514 17.1253C61.2339 17.4004 60.942 17.6584 60.576 17.8992C59.9748 18.3054 59.2273 18.5086 58.3337 18.5086C57.4237 18.5086 56.6519 18.2811 56.0182 17.8261C55.4007 17.3549 54.9945 16.6643 54.7995 15.7544H64.6219V14.5357C64.6219 12.7809 64.0532 11.2697 62.9158 10.0023C61.7784 8.7349 60.2429 8.1012 58.3093 8.1012C56.3757 8.1012 54.7914 8.72678 53.5565 9.97793C52.3378 11.2291 51.7285 12.789 51.7285 14.6576C51.7285 16.5424 52.3216 18.1105 53.5078 19.3616ZM61.4534 13.3171H54.8727C55.1001 12.4884 55.5226 11.8547 56.1401 11.416C56.7738 10.961 57.4887 10.7335 58.2849 10.7335C59.2273 10.7335 59.9748 11.0097 60.5272 11.5622C61.0959 12.0984 61.4047 12.6834 61.4534 13.3171Z" fill="#212323"/>
<path fill-rule="evenodd" clip-rule="evenodd" d="M31.2664 8.32238V9.83047C30.8927 9.32676 30.3321 8.91242 29.5847 8.58744C28.8372 8.26246 28.041 8.09998 27.1961 8.09998C25.4575 8.09998 23.9788 8.71743 22.7602 9.95234C21.5577 11.171 20.9565 12.739 20.9565 14.6564C20.9565 16.655 21.5577 18.2474 22.7602 19.4335C23.9626 20.6197 25.4412 21.2128 27.1961 21.2128C28.0248 21.2128 28.8128 21.0584 29.5603 20.7497C30.324 20.4247 30.8927 20.0103 31.2664 19.5066V20.9934H34.3131V8.32238H31.2664ZM24.0519 14.6564C24.0519 13.6002 24.385 12.7228 25.0512 12.0241C25.7174 11.3091 26.5868 10.9516 27.6592 10.9516C28.7316 10.9516 29.6009 11.3091 30.2671 12.0241C30.9496 12.739 31.2908 13.6164 31.2908 14.6564C31.2908 15.6963 30.9496 16.5737 30.2671 17.2887C29.6009 18.0036 28.7316 18.3611 27.6592 18.3611C26.5868 18.3611 25.7174 18.0117 25.0512 17.313C24.385 16.5981 24.0519 15.7125 24.0519 14.6564Z" fill="#212323"/>
<rect x="66.3213" y="17.944" width="3.04688" height="3.04688" fill="#212323"/>
</g>
<defs>
<clipPath id="clip0_664_17943">
<rect width="69.3913" height="24" fill="white"/>
</clipPath>
</defs>
</svg>
