<svg width="32" height="32" viewBox="0 0 32 32" fill="none" xmlns="http://www.w3.org/2000/svg">
<g clip-path="url(#clip0_664_17944)">
<rect x="22.3521" y="6.79224" width="4.4899" height="4.4899" transform="rotate(45 22.3521 6.79224)" fill="#6324F3"/>
<rect x="19.1772" y="9.96716" width="4.4899" height="4.4899" transform="rotate(45 19.1772 9.96716)" fill="#6324F3"/>
<rect x="19.1772" y="9.96716" width="4.4899" height="4.4899" transform="rotate(45 19.1772 9.96716)" fill="#6324F3"/>
<rect x="19.1772" y="16.3171" width="4.4899" height="4.4899" transform="rotate(45 19.1772 16.3171)" fill="#6324F3"/>
<rect x="22.3521" y="19.4916" width="4.4899" height="4.4899" transform="rotate(45 22.3521 19.4916)" fill="#6324F3"/>
<rect x="12.8276" y="16.3171" width="4.4899" height="4.4899" transform="rotate(45 12.8276 16.3171)" fill="#6324F3"/>
<rect x="9.65283" y="19.4916" width="4.4899" height="4.4899" transform="rotate(45 9.65283 19.4916)" fill="#6324F3"/>
<rect x="9.65283" y="6.79224" width="4.4899" height="4.4899" transform="rotate(45 9.65283 6.79224)" fill="#6324F3"/>
</g>
<defs>
<clipPath id="clip0_664_17944">
<rect width="22.0046" height="22.0046" fill="white" transform="translate(16.0024 0.442749) rotate(45)"/>
</clipPath>
</defs>
</svg>
