<svg width="464" height="160" viewBox="0 0 464 160" fill="none" xmlns="http://www.w3.org/2000/svg">
<g clip-path="url(#clip0_522_1384)">
<path d="M0.166016 139.964V55.4702H20.46V65.8694C22.4083 62.2947 25.3306 59.4241 29.2271 57.2576C33.2318 55.0911 37.7776 54.0078 42.8647 54.0078C53.9046 54.0078 62.2387 58.07 67.8669 66.1944C74.1445 58.07 82.9116 54.0078 94.168 54.0078C103.476 54.0078 111.269 56.9868 117.547 62.9447C123.824 68.9025 126.963 76.052 126.963 84.3931V139.964H106.669V90.7301C106.669 85.5305 105.1 81.36 101.961 78.2185C98.9303 74.9688 95.0339 73.3439 90.2715 73.3439C85.2927 73.3439 81.288 74.9688 78.2575 78.2185C75.2269 81.4683 73.7116 85.6388 73.7116 90.7301V139.964H53.4176V90.7301C53.4176 85.5305 51.8482 81.36 48.7093 78.2185C45.6788 74.9688 41.7823 73.3439 37.02 73.3439C32.0412 73.3439 28.0365 74.9688 25.0059 78.2185C21.9753 81.4683 20.46 85.6388 20.46 90.7301V139.964H0.166016Z" fill="#F3F5F5"/>
<path d="M284.533 141.425C272.843 141.425 262.994 137.471 254.985 129.564C246.975 121.656 242.97 111.04 242.97 97.7159C242.97 84.9335 246.975 74.4801 254.985 66.3557C263.102 58.123 272.952 54.0066 284.533 54.0066C290.161 54.0066 295.464 55.0899 300.443 57.2564C305.422 59.4229 309.156 62.1852 311.645 65.5433V19.7217H331.939V139.963H311.645V130.051C309.156 133.409 305.368 136.171 300.281 138.338C295.302 140.396 290.053 141.425 284.533 141.425ZM270.246 80.1672C265.808 84.8252 263.589 90.6748 263.589 97.7159C263.589 104.757 265.808 110.661 270.246 115.427C274.683 120.085 280.474 122.414 287.617 122.414C294.761 122.414 300.551 120.031 304.989 115.265C309.535 110.498 311.808 104.649 311.808 97.7159C311.808 90.7831 309.535 84.9335 304.989 80.1672C300.551 75.4009 294.761 73.0177 287.617 73.0177C280.474 73.0177 274.683 75.4009 270.246 80.1672Z" fill="#F3F5F5"/>
<path fill-rule="evenodd" clip-rule="evenodd" d="M357.31 129.077C365.32 137.31 376.035 141.426 389.456 141.426C399.847 141.426 408.289 139.043 414.783 134.277C420.324 130.276 424.303 126.085 426.718 121.703L410.224 114.169C408.775 116.003 406.831 117.722 404.392 119.328C400.388 122.036 395.409 123.39 389.456 123.39C383.395 123.39 378.254 121.874 374.033 118.841C369.92 115.699 367.214 111.095 365.915 105.029H431.343V96.9047C431.343 85.2055 427.555 75.1313 419.978 66.6819C412.402 58.2325 402.174 54.0078 389.294 54.0078C376.414 54.0078 365.861 58.1783 357.635 66.5194C349.517 74.8604 345.458 85.2597 345.458 97.7171C345.458 110.283 349.409 120.736 357.31 129.077ZM410.237 88.7803H366.402C367.917 83.2557 370.731 79.031 374.844 76.1062C379.065 73.0731 383.828 71.5565 389.131 71.5565C395.409 71.5565 400.388 73.3981 404.068 77.0811C407.856 80.6559 409.912 84.5556 410.237 88.7803Z" fill="#F3F5F5"/>
<path fill-rule="evenodd" clip-rule="evenodd" d="M209.158 55.4827V65.5366C206.668 62.1786 202.934 59.4163 197.955 57.2498C192.977 55.0833 187.673 54 182.045 54C170.464 54 160.614 58.1164 152.497 66.3491C144.487 74.4735 140.483 84.9269 140.483 97.7093C140.483 111.033 144.487 121.649 152.497 129.557C160.506 137.465 170.355 141.419 182.045 141.419C187.565 141.419 192.814 140.389 197.793 138.331C202.88 136.165 206.668 133.402 209.158 130.044V139.956H229.452V55.4827H209.158ZM161.101 97.7093C161.101 90.6681 163.32 84.8186 167.758 80.1606C172.195 75.3943 177.986 73.0111 185.13 73.0111C192.273 73.0111 198.064 75.3943 202.501 80.1606C207.047 84.9269 209.32 90.7765 209.32 97.7093C209.32 104.642 207.047 110.492 202.501 115.258C198.064 120.024 192.273 122.407 185.13 122.407C177.986 122.407 172.195 120.078 167.758 115.42C163.32 110.654 161.101 104.75 161.101 97.7093Z" fill="#F3F5F5"/>
<rect x="442.662" y="119.626" width="20.2955" height="20.3125" fill="#F3F5F5"/>
</g>
<defs>
<clipPath id="clip0_522_1384">
<rect width="462.222" height="160" fill="white" transform="translate(0.888916)"/>
</clipPath>
</defs>
</svg>
